PathFileType	4	(X/Y/Z)	/Users/itak/Documents/Research/Walk-IL/dataset/trc/00067_00006.trc
DataRate	CameraRate	NumFrames	NumMarkers	Units	OrigDataRate	OrigDataStartFrame	OrigNumFrames
100.000000	100.000000	4	53	mm	100.000000	0	680
Frame#	Time	RPSI			LPSI			L3			STRN			T10			C7			CLAV			RBAK			LBAK			LSHO			LUPA			LAEL			LAOL			LWTS			LWPS			LFRA			LIFD			LHPS			LHTS			RSHO			RUPA			RAEL			RAOL			RWTS			RWPS			RFRA			RIFD			RHTS			RHPS			RBHD			LFHD			RFHD			LBHD			LHIP			RHIP			RASI			LASI			LKNE			LTHI			LANK			LTIP			LTOE			LMT1			LMT5			LHEE			RKNE			RTHI			RANK			RTIP			RTOE			RMT1			RMT5			RHEE			
		X1	Y1	Z1	X2	Y2	Z2	X3	Y3	Z3	X4	Y4	Z4	X5	Y5	Z5	X6	Y6	Z6	X7	Y7	Z7	X8	Y8	Z8	X9	Y9	Z9	X10	Y10	Z10	X11	Y11	Z11	X12	Y12	Z12	X13	Y13	Z13	X14	Y14	Z14	X15	Y15	Z15	X16	Y16	Z16	X17	Y17	Z17	X18	Y18	Z18	X19	Y19	Z19	X20	Y20	Z20	X21	Y21	Z21	X22	Y22	Z22	X23	Y23	Z23	X24	Y24	Z24	X25	Y25	Z25	X26	Y26	Z26	X27	Y27	Z27	X28	Y28	Z28	X29	Y29	Z29	X30	Y30	Z30	X31	Y31	Z31	X32	Y32	Z32	X33	Y33	Z33	X34	Y34	Z34	X35	Y35	Z35	X36	Y36	Z36	X37	Y37	Z37	X38	Y38	Z38	X39	Y39	Z39	X40	Y40	Z40	X41	Y41	Z41	X42	Y42	Z42	X43	Y43	Z43	X44	Y44	Z44	X45	Y45	Z45	X46	Y46	Z46	X47	Y47	Z47	X48	Y48	Z48	X49	Y49	Z49	X50	Y50	Z50	X51	Y51	Z51	X52	Y52	Z52	X53	Y53	Z53	

1	0	-124.5219345092773	1041.160034179688	1271.425415039062	-138.6256103515625	1036.723022460938	1096.094116210938	-125.4373397827148	1086.369384765625	1175.702270507812	119.7731857299805	1287.7734375	1174.08056640625	-147.0153045654297	1220.187866210938	1167.840087890625	-91.27803802490234	1487.9287109375	1163.116088867188	88.99324035644531	1402.338134765625	1170.634399414062	-152.072265625	1348.584350585938	1238.1025390625	-109.7557983398438	1449.445434570312	1062.129760742188	-4.535811901092529	1453.596313476562	991.4539184570312	-17.9340934753418	1324.2763671875	916.3079223632812	6.710480213165283	1108.225341796875	905.6144409179688	-58.45283126831055	1095.430908203125	989.57177734375	97.50172424316406	871.2550659179688	979.4847412109375	41.91553497314453	858.3526611328125	917.4259643554688	29.02355766296387	999.2381591796875	902.4071655273438	108.7671508789062	686.6707153320312	1006.485229492188	74.14019775390625	776.9978637695312	926.7528076171875	119.7333602905273	788.52880859375	980.4876098632812	-32.24702453613281	1453.530517578125	1340.824096679688	-45.09421920776367	1384.873901367188	1404.5390625	-74.95274353027344	1119.373168945312	1431.776977539062	-53.90884780883789	1098.430297851562	1337.138427734375	70.4840087890625	868.7325439453125	1399.407348632812	-1.731533169746399	853.2235107421875	1446.156127929688	-61.62111282348633	1039.249389648438	1439.04052734375	64.3406982421875	679.4315185546875	1374.388793945312	89.81071472167969	763.5243530273438	1399.248046875	30.1502799987793	763.0007934570312	1447.171875	-38.7354850769043	1673.79443359375	1098.950073242188	121.22802734375	1695.387451171875	1241.63623046875	137.0736541748047	1697.931884765625	1116.189331054688	-47.25043487548828	1663.278198242188	1236.209838867188	-41.56525421142578	966.2557983398438	1004.552429199219	-60.90499114990234	968.6629638671875	1349.282592773438	64.92453765869141	981.0830078125	1326.502685546875	74.66412353515625	970.2525024414062	1056.585083007812	-16.88967323303223	499.7195434570312	1054.173950195312	-35.16925048828125	643.1141967773438	1017.908508300781	-116.1634826660156	52.2363166809082	1046.747680664062	-77.01976776123047	268.4079284667969	1036.591918945312	89.16970062255859	44.31711196899414	1039.203002929688	43.95806121826172	41.93140029907227	1096.077392578125	-16.052734375	45.69775390625	1002.337097167969	-165.1291351318359	47.94495010375977	1124.51611328125	-6.950897216796875	520.4895629882812	1324.717041015625	13.25659656524658	792.365478515625	1358.440551757812	-90.57173919677734	42.78053283691406	1314.156005859375	-28.74945449829102	400.4563903808594	1328.371948242188	125.6641540527344	44.23444366455078	1273.89794921875	65.03717041015625	50.76114273071289	1235.363159179688	34.8873176574707	47.64950561523438	1328.376831054688	-138.0816192626953	46.21699142456055	1257.807250976562	
2	0.01	-124.4866409301758	1041.24951171875	1271.453125	-138.5699310302734	1036.715209960938	1096.031372070312	-125.3586730957031	1086.389404296875	1175.678833007812	119.9045639038086	1287.777709960938	1174.137451171875	-146.8887634277344	1220.18017578125	1167.780395507812	-91.10457611083984	1487.94287109375	1163.130859375	89.14695739746094	1402.351440429688	1170.695068359375	-151.9662322998047	1348.585327148438	1238.056762695312	-109.5740051269531	1449.45166015625	1062.123901367188	-4.338279247283936	1453.62353515625	991.50732421875	-17.64706802368164	1324.31640625	916.3207397460938	7.137794494628906	1108.298583984375	905.5144653320312	-57.9840202331543	1095.40380859375	989.4884643554688	98.11027526855469	871.3652954101562	979.2461547851562	42.51128768920898	858.461181640625	917.178955078125	29.53620910644531	999.3529052734375	902.2473754882812	109.5566024780273	686.7772827148438	1006.123352050781	74.81565093994141	777.12451171875	926.4470825195312	120.431037902832	788.657470703125	980.1867065429688	-32.11220550537109	1453.50390625	1340.8720703125	-44.98527908325195	1384.806396484375	1404.55517578125	-74.862060546875	1119.331420898438	1431.774291992188	-53.79706192016602	1098.399536132812	1337.17431640625	70.73599243164062	868.737060546875	1399.455200195312	-1.588981986045837	853.1959838867188	1446.130859375	-61.49541473388672	1039.176147460938	1439.059326171875	64.55779266357422	679.42333984375	1374.371826171875	89.96923828125	763.5089111328125	1399.328247070312	30.31912231445312	762.9849243164062	1447.163940429688	-38.64177703857422	1673.801513671875	1099.077880859375	121.4738388061523	1695.422607421875	1241.59765625	137.1463317871094	1697.95947265625	1116.163452148438	-47.03323364257812	1663.285034179688	1236.3525390625	-41.43889999389648	966.2271728515625	1004.555480957031	-60.95777893066406	968.7804565429688	1349.32080078125	64.90251922607422	981.1893920898438	1326.591674804688	74.75980377197266	970.218505859375	1056.675903320312	-17.07301330566406	499.6957397460938	1054.036987304688	-35.20331954956055	643.097900390625	1017.7470703125	-116.216194152832	52.15560531616211	1046.6982421875	-77.07784271240234	268.3751525878906	1036.513427734375	89.02995300292969	44.54970932006836	1039.199584960938	43.86566925048828	42.10762023925781	1096.013061523438	-16.17472267150879	45.74043655395508	1002.299133300781	-165.232666015625	47.86758804321289	1124.445434570312	-6.139447689056396	520.6256713867188	1324.707763671875	13.2339038848877	792.569091796875	1358.5625	-90.60772705078125	42.7586669921875	1314.197387695312	-27.86306190490723	400.37060546875	1328.330444335938	125.587028503418	44.38592147827148	1273.990844726562	64.96356964111328	50.89028930664062	1235.388793945312	34.81129455566406	47.70253753662109	1328.432495117188	-138.1205444335938	46.18282699584961	1257.8310546875	
3	0.02	-124.4412078857422	1041.359130859375	1271.489013671875	-138.4618072509766	1036.707641601562	1095.968994140625	-125.2486877441406	1086.420166015625	1175.651611328125	120.0985107421875	1287.783081054688	1174.224609375	-146.7024841308594	1220.173583984375	1167.703735351562	-90.85790252685547	1487.96240234375	1163.15576171875	89.3651123046875	1402.370361328125	1170.786743164062	-151.8283081054688	1348.591186523438	1237.9873046875	-109.3112411499023	1449.466064453125	1062.120483398438	-4.051604747772217	1453.668823242188	991.5845947265625	-17.24452590942383	1324.382934570312	916.3391723632812	7.72301197052002	1108.410766601562	905.3839721679688	-57.36263275146484	1095.381103515625	989.3677368164062	98.92131805419922	871.5194091796875	978.9302368164062	43.31086349487305	858.6145629882812	916.8509521484375	30.22908973693848	999.5150146484375	902.0350952148438	110.5957336425781	686.9247436523438	1005.640808105469	75.71416473388672	777.3018798828125	926.0405883789062	121.3542709350586	788.8336181640625	979.7880859375	-31.92817687988281	1453.4716796875	1340.944702148438	-44.84217834472656	1384.72119140625	1404.5791015625	-74.73632049560547	1119.2763671875	1431.7724609375	-53.6401481628418	1098.361938476562	1337.22412109375	71.06584930419922	868.7472534179688	1399.527587890625	-1.400577545166016	853.1663818359375	1446.097778320312	-61.32912826538086	1039.083984375	1439.083251953125	64.86148834228516	679.4283447265625	1374.365600585938	90.18952178955078	763.4899291992188	1399.439575195312	30.54591369628906	762.9729614257812	1447.1806640625	-38.51408386230469	1673.811279296875	1099.267333984375	121.8159484863281	1695.46826171875	1241.554809570312	137.2522735595703	1697.998046875	1116.130737304688	-46.72446060180664	1663.302856445312	1236.564086914062	-41.24933624267578	966.1923217773438	1004.573608398438	-61.02553558349609	968.9241943359375	1349.379150390625	64.87944793701172	981.3253784179688	1326.725463867188	74.9022216796875	970.1749267578125	1056.81396484375	-17.29388618469238	499.6673889160156	1053.861328125	-35.23002243041992	643.0811157226562	1017.541320800781	-116.287712097168	52.05376052856445	1046.635498046875	-77.15061187744141	268.3326110839844	1036.408447265625	88.84384918212891	44.89235687255859	1039.2021484375	43.74036407470703	42.3540153503418	1095.937133789062	-16.34124946594238	45.80711364746094	1002.2529296875	-165.3747100830078	47.76631927490234	1124.351806640625	-4.973133087158203	520.7921142578125	1324.673950195312	13.33868312835693	792.766357421875	1358.6552734375	-90.64923095703125	42.74172210693359	1314.236572265625	-26.61881446838379	400.242919921875	1328.265869140625	125.4945907592773	44.6102180480957	1274.10791015625	64.86941528320312	51.05607223510742	1235.425170898438	34.71557998657227	47.78494644165039	1328.495971679688	-138.1566772460938	46.14666366577148	1257.84814453125	
4	0.03	-124.3851013183594	1041.480102539062	1271.532836914062	-138.2857666015625	1036.701416015625	1095.919189453125	-125.1053619384766	1086.462646484375	1175.6240234375	120.3624420166016	1287.788818359375	1174.347412109375	-146.4494476318359	1220.16943359375	1167.613647460938	-90.53369140625	1487.986694335938	1163.193725585938	89.65200805664062	1402.394409179688	1170.91455078125	-151.6602478027344	1348.60302734375	1237.892333984375	-108.9595413208008	1449.491455078125	1062.122802734375	-3.666341304779053	1453.735717773438	991.6884155273438	-16.72134590148926	1324.481811523438	916.3641967773438	8.46449089050293	1108.5673828125	905.2265014648438	-56.60002136230469	1095.370727539062	989.2069702148438	99.92030334472656	871.7180786132812	978.5438232421875	44.30296325683594	858.8145141601562	916.4483642578125	31.09494400024414	999.7261962890625	901.7745361328125	111.8580932617188	687.11279296875	1005.047058105469	76.81864929199219	777.5309448242188	925.5415649414062	122.4823913574219	789.0562744140625	979.3009033203125	-31.69607353210449	1453.435668945312	1341.04541015625	-44.66868591308594	1384.622314453125	1404.612060546875	-74.57562255859375	1119.208984375	1431.772705078125	-53.43720245361328	1098.31982421875	1337.28857421875	71.46417236328125	868.7647705078125	1399.628051757812	-1.169481635093689	853.1385498046875	1446.059326171875	-61.12677764892578	1038.977416992188	1439.111450195312	65.25349426269531	679.4533081054688	1374.37890625	90.47370147705078	763.4694213867188	1399.582275390625	30.82784080505371	762.9682006835938	1447.234252929688	-38.35271072387695	1673.822875976562	1099.526977539062	122.2571868896484	1695.521850585938	1241.51318359375	137.3952789306641	1698.047119140625	1116.093017578125	-46.31791687011719	1663.334350585938	1236.853271484375	-40.98807907104492	966.1536865234375	1004.614318847656	-61.10286712646484	969.0828247070312	1349.461181640625	64.86129760742188	981.4842529296875	1326.909423828125	75.09798431396484	970.1234741210938	1057.005004882812	-17.53471946716309	499.6367492675781	1053.655151367188	-35.23787307739258	643.0665893554688	1017.301513671875	-116.3775253295898	51.93614196777344	1046.562255859375	-77.23397064208984	268.2821960449219	1036.279418945312	88.614990234375	45.35555267333984	1039.214965820312	43.58349227905273	42.67154312133789	1095.856811523438	-16.55051612854004	45.90186309814453	1002.202209472656	-165.5540771484375	47.64422988891602	1124.237548828125	-3.430726766586304	520.9764404296875	1324.605224609375	13.63448715209961	792.9181518554688	1358.686279296875	-90.69214630126953	42.73661804199219	1314.264038085938	-25.0094165802002	400.06884765625	1328.17431640625	125.3937911987305	44.91553115844727	1274.2421875	64.75923919677734	51.25167083740234	1235.471435546875	34.60534286499023	47.90216445922852	1328.558959960938	-138.1812438964844	46.11366271972656	1257.850341796875	
